<?xml version="1.0" encoding="utf-8"?>
<!-- Generator: Adobe Illustrator 27.5.0, SVG Export Plug-In . SVG Version: 6.00 Build 0)  -->
<svg version="1.1" xmlns="http://www.w3.org/2000/svg" xmlns:xlink="http://www.w3.org/1999/xlink" x="0px" y="0px"
	 viewBox="0 0 500 500" style="enable-background:new 0 0 500 500;" xml:space="preserve">
<g id="BACKGROUND">
	<g style="opacity:0.2;">
		<path style="fill:#FF5FA0;" d="M473.129,217.387c0,3.114-0.45,10.84-1.236,23.18c-0.787,12.339-3.484,26.639-7.98,42.784
			c-4.608,16.26-11.577,33.443-21.131,51.549c-9.441,18.105-22.817,34.943-40.126,50.396
			c-17.309,15.338-39.114,28.139-65.528,38.172c-26.413,10.033-58.559,14.992-96.437,14.992c-30.46,0-58.109-3.69-82.837-10.956
			c-24.727-7.381-45.97-18.567-63.729-33.559c-17.646-15.107-31.471-34.366-41.362-57.892s-14.836-51.895-14.836-84.992
			c0-27.793,4.271-55.009,13.038-81.648c8.542-26.639,22.03-50.28,40.126-71.154c18.096-20.873,41.587-37.364,70.473-49.704
			c28.886-12.339,63.055-18.567,102.619-18.567c68.45,0,120.378,16.26,155.783,48.55
			C455.371,110.945,473.129,157.305,473.129,217.387z"/>
	</g>
</g>
<g id="OBJECTS">
	<g>
		<g>
			<g>
				<g>
					<path style="fill:#1E1328;" d="M254.679,395.971c0,0-10.25,42.815-8.713,46.531c0,0,74.332-3.376,16.984-9.932l5.935-17.867
						L254.679,395.971z"/>
					<path style="fill:#522546;" d="M283.75,436.372c-4.89,2.714-32.723,3.997-38.02,4.218l0.236,1.912
						C245.966,442.502,291.637,440.427,283.75,436.372z"/>
				</g>
				<g>
					<path style="fill:#682741;" d="M176.026,218.505c0,0-24,44.383-3.333,55.143c13.817,7.194,92.217,50.09,92.217,50.09
						s-17.732,74.606-17.732,88.055l25.333,6.66c0,0,35.515-103.111,28.849-113.199c-6.667-10.087-72.667-53.126-72.667-53.126
						l5.333-14.794L176.026,218.505z"/>
				</g>
			</g>
			<g>
				<g>
					<g>
						<path style="fill:#1E1328;" d="M357.914,168.907c0.178,1.07,1.215,1.789,2.317,1.606l1.996-0.331
							c1.102-0.183,1.852-1.199,1.674-2.269l0,0c-0.178-1.07-1.215-1.789-2.317-1.607l-1.996,0.331
							C358.486,166.821,357.736,167.837,357.914,168.907L357.914,168.907z"/>
						<path style="fill:#1E1328;" d="M359.242,163.323c0.33,1.033,1.604,1.549,2.846,1.152l2.248-0.719
							c1.241-0.397,1.98-1.556,1.65-2.59l0,0c-0.33-1.033-1.604-1.549-2.846-1.152l-2.248,0.719
							C359.651,161.13,358.912,162.29,359.242,163.323L359.242,163.323z"/>
						<path style="fill:#1E1328;" d="M358.268,158.899c0.478,0.974,1.655,1.375,2.629,0.896l6.053-2.924
							c0.974-0.478,1.375-1.656,0.896-2.629l0,0c-0.478-0.974-1.655-1.375-2.629-0.896l-6.053,2.924
							C358.191,156.748,357.789,157.925,358.268,158.899L358.268,158.899z"/>
						<path style="fill:#1E1328;" d="M359.588,166.638l1.996-0.331c0.47-0.078,0.928,0.009,1.313,0.217l-0.796,3.679l-1.87,0.31
							c-1.102,0.183-2.14-0.536-2.317-1.607C357.736,167.837,358.486,166.821,359.588,166.638z"/>
						<path style="fill:#1E1328;" d="M360.892,160.734l2.248-0.719c0.405-0.129,0.812-0.16,1.19-0.109l-0.896,4.14l-1.345,0.43
							c-1.242,0.397-2.516-0.119-2.846-1.152S359.651,161.13,360.892,160.734z"/>
						<path style="fill:#1E1328;" d="M359.164,156.27l6.053-2.924c0.185-0.091,0.378-0.15,0.572-0.179l-1.031,4.764l-3.861,1.865
							c-0.974,0.479-2.151,0.077-2.629-0.896C357.789,157.925,358.191,156.748,359.164,156.27z"/>
					</g>
					<path style="fill:#1E1328;" d="M331.559,169.823c2.708-13.749,3.448-14.809,3.448-14.809c4.531,0.323,2.691,7.272,2.101,9.483
						c4.604,3.601,2.594,11.495,2.594,11.495l12.653,2.739c-1.305,7.463-12.888,9.574-12.888,9.574l-6.381-3.083l-5.083-1.222
						L331.559,169.823z"/>
					<g>
						<polygon style="fill:#1E1328;" points="343.75,185.364 329.134,194.779 321.217,182.488 334.299,174.061 						"/>
						<g>
							
								<rect x="326.704" y="178.867" transform="matrix(0.8407 -0.5415 0.5415 0.8407 -48.0526 209.0137)" style="opacity:0.2;fill:#1E283A;" width="9.018" height="14.62"/>
							<g>
								<path style="opacity:0.2;fill:#1E283A;" d="M339.475,177.045l0.228-1.053l12.653,2.739c-0.063,0.361-0.151,0.71-0.26,1.046
									L339.475,177.045z"/>
							</g>
						</g>
					</g>
				</g>
				<g>
					<g>
						<path style="fill:#88304E;" d="M335.055,172.376c-0.298,1.378,0.577,2.736,1.954,3.034l19.643,4.252
							c1.378,0.298,2.736-0.577,3.034-1.954l8.841-40.846c0.298-1.378-0.577-2.736-1.954-3.034l-19.643-4.252
							c-1.378-0.298-2.736,0.577-3.034,1.954L335.055,172.376z"/>
						<path style="fill:#FFFFFF;" d="M336.977,169.996c-0.151,0.7,0.293,1.39,0.993,1.541l19.319,4.182
							c0.7,0.151,1.39-0.293,1.541-0.993l8.158-37.689c0.152-0.7-0.293-1.39-0.993-1.541l-19.319-4.182
							c-0.7-0.152-1.39,0.293-1.541,0.993L336.977,169.996z"/>
						<path style="opacity:0.2;fill:#FFFFFF;" d="M345.938,175.22c-0.149,0.689,0.288,1.368,0.977,1.517
							c0.689,0.149,1.368-0.288,1.517-0.977c0.149-0.689-0.288-1.368-0.977-1.517C346.766,174.094,346.087,174.531,345.938,175.22z"
							/>
					</g>
					<g>
						<path style="fill:#E23E57;" d="M349.996,164.576c0,0,0.003-0.002,0.004-0.003c0,0.001,0.002,0.004,0.002,0.004l0.001-0.007
							c0.262-0.214,14.809-12.19,6.512-17.568c-0.801-0.607-1.764-1.049-2.837-1.253c-0.724-0.138-1.44-0.151-2.127-0.067
							c-11.529,0.867-1.724,18.58-1.554,18.887L349.996,164.576z"/>
						<path style="opacity:0.1;fill:#060D19;" d="M347.999,146.855l7.906,11.627c-2.567,3.342-5.78,5.988-5.902,6.088l-0.001,0.007
							c0,0-0.002-0.003-0.002-0.004c-0.001,0.001-0.004,0.003-0.004,0.003l0.001-0.007
							C349.85,164.304,342.476,150.979,347.999,146.855z"/>
						<path style="fill:#FFFFFF;" d="M354.884,152.635c-0.265,1.391-1.607,2.304-2.998,2.039c-1.391-0.265-2.304-1.607-2.039-2.998
							c0.265-1.391,1.607-2.304,2.998-2.039S355.149,151.244,354.884,152.635z"/>
					</g>
				</g>
				<g>
					<path style="fill:#E23E57;" d="M339.325,191.888l-13.108-16.677l-47.235,24.925c-7.223-21.003-11.257-43.988-11.621-45.081v-2
						c-9.279,16.497-8.194,38.441-4.964,55.832l-5.938,3.133l9.017,10.337c2.483,9.187,4.886,15.198,4.886,15.198
						s2.797-0.913,6.226-2.461l1.274,1.461L339.325,191.888z"/>
					<path style="opacity:0.2;fill:#111823;" d="M339.325,191.888l-13.108-16.677l-47.235,24.925
						c-7.223-21.003-11.257-43.988-11.621-45.081v-2c-9.279,16.497-8.194,38.441-4.964,55.832l-5.938,3.133l9.017,10.337
						c2.483,9.187,4.886,15.198,4.886,15.198s2.797-0.913,6.226-2.461l1.274,1.461L339.325,191.888z"/>
				</g>
			</g>
		</g>
		<g>
			<path style="opacity:0.1;fill:#311D3F;" d="M412.791,470.982c0,4.668-73.263,8.452-163.638,8.452s-163.638-3.784-163.638-8.452
				c0-4.668,73.263-8.452,163.638-8.452S412.791,466.314,412.791,470.982z"/>
			<g>
				<g>
					<g>
						<g>
							<path style="fill:#877881;" d="M349.257,335.433c35.059,0,63.581,28.771,63.581,64.135s-28.522,64.135-63.581,64.135
								c-35.059,0-63.581-28.771-63.581-64.135S314.199,335.433,349.257,335.433 M349.257,327.12
								c-39.667,0-71.823,32.436-71.823,72.449s32.156,72.449,71.823,72.449s71.823-32.436,71.823-72.449
								S388.924,327.12,349.257,327.12L349.257,327.12z"/>
							<g>
								<path style="fill:#311D3F;" d="M418.551,399.568c-0.223,23.613-11.861,45.412-31.363,58.509
									c-19.625,13.179-45.338,14.817-66.716,5.105c-20.877-9.485-35.465-29.319-39.546-51.866
									c-4.228-23.357,4.635-47.434,21.678-63.433c20.118-18.886,50.575-23.223,75.439-11.927
									C402.691,347.153,418.295,372.529,418.551,399.568c0.031,3.288,5.089,3.291,5.058,0
									c-0.208-21.973-9.585-42.631-26.069-57.025c-16.474-14.387-38.536-20.144-59.935-17.042
									c-45.008,6.525-72.658,54.773-58.948,97.645c11.157,34.89,46.816,55.627,82.252,50.49
									c35.954-5.212,62.359-38.01,62.7-74.067C423.64,396.276,418.582,396.28,418.551,399.568z"/>
							</g>
							<g>
								
									<line style="fill:none;stroke:#877881;stroke-width:0.5022;stroke-miterlimit:10;" x1="348.359" y1="334.507" x2="348.359" y2="468.666"/>
								
									<line style="fill:none;stroke:#877881;stroke-width:0.5022;stroke-miterlimit:10;" x1="281.859" y1="401.587" x2="414.859" y2="401.587"/>
								
									<line style="fill:none;stroke:#877881;stroke-width:0.5022;stroke-miterlimit:10;" x1="301.336" y1="354.154" x2="395.382" y2="449.019"/>
								
									<line style="fill:none;stroke:#877881;stroke-width:0.5022;stroke-miterlimit:10;" x1="301.336" y1="449.019" x2="395.382" y2="354.154"/>
							</g>
							<g>
								
									<line style="fill:none;stroke:#877881;stroke-width:0.5022;stroke-miterlimit:10;" x1="322.544" y1="339.768" x2="374.174" y2="463.405"/>
								
									<line style="fill:none;stroke:#877881;stroke-width:0.5022;stroke-miterlimit:10;" x1="287.074" y1="427.627" x2="409.644" y2="375.546"/>
								
									<line style="fill:none;stroke:#877881;stroke-width:0.5022;stroke-miterlimit:10;" x1="286.77" y1="376.287" x2="409.948" y2="426.886"/>
								
									<line style="fill:none;stroke:#877881;stroke-width:0.5022;stroke-miterlimit:10;" x1="323.278" y1="463.712" x2="373.44" y2="339.461"/>
							</g>
							<g>
								
									<line style="fill:none;stroke:#877881;stroke-width:0.5022;stroke-miterlimit:10;" x1="335.26" y1="335.821" x2="361.458" y2="467.352"/>
								
									<line style="fill:none;stroke:#877881;stroke-width:0.5022;stroke-miterlimit:10;" x1="283.162" y1="414.799" x2="413.556" y2="388.374"/>
								
									<line style="fill:none;stroke:#877881;stroke-width:0.5022;stroke-miterlimit:10;" x1="292.995" y1="364.426" x2="403.723" y2="438.747"/>
								
									<line style="fill:none;stroke:#877881;stroke-width:0.5022;stroke-miterlimit:10;" x1="311.52" y1="457.433" x2="385.198" y2="345.741"/>
							</g>
							<g>
								
									<line style="fill:none;stroke:#877881;stroke-width:0.5022;stroke-miterlimit:10;" x1="310.978" y1="346.108" x2="385.74" y2="457.065"/>
								
									<line style="fill:none;stroke:#877881;stroke-width:0.5022;stroke-miterlimit:10;" x1="293.36" y1="439.293" x2="403.358" y2="363.88"/>
								
									<line style="fill:none;stroke:#877881;stroke-width:0.5022;stroke-miterlimit:10;" x1="283.036" y1="389.02" x2="413.682" y2="414.153"/>
								
									<line style="fill:none;stroke:#877881;stroke-width:0.5022;stroke-miterlimit:10;" x1="335.901" y1="467.478" x2="360.817" y2="335.695"/>
							</g>
						</g>
						<g>
							<ellipse style="fill:#877881;" cx="349.257" cy="399.568" rx="10.973" ry="11.068"/>
						</g>
					</g>
					<g>
						<path style="fill:#311D3F;" d="M354.088,399.568c0,2.691-2.163,4.873-4.831,4.873c-2.668,0-4.83-2.182-4.83-4.873
							c0-2.691,2.163-4.873,4.83-4.873C351.925,394.695,354.088,396.877,354.088,399.568z"/>
					</g>
				</g>
				<g>
					<g>
						<path style="fill:#877881;" d="M140.257,335.433c35.059,0,63.581,28.771,63.581,64.135s-28.522,64.135-63.581,64.135
							c-35.059,0-63.581-28.771-63.581-64.135S105.199,335.433,140.257,335.433 M140.257,327.12
							c-39.666,0-71.823,32.436-71.823,72.449s32.156,72.449,71.823,72.449s71.823-32.436,71.823-72.449
							S179.924,327.12,140.257,327.12L140.257,327.12z"/>
						<g>
							<path style="fill:#311D3F;" d="M209.551,399.568c-0.223,23.613-11.86,45.412-31.363,58.509
								c-19.625,13.179-45.338,14.817-66.716,5.105c-20.877-9.485-35.465-29.319-39.546-51.866
								c-4.228-23.357,4.635-47.434,21.678-63.433c20.118-18.886,50.575-23.223,75.439-11.927
								C193.691,347.153,209.295,372.529,209.551,399.568c0.031,3.288,5.089,3.291,5.058,0
								c-0.208-21.973-9.585-42.631-26.069-57.025c-16.474-14.387-38.536-20.144-59.935-17.042
								c-45.008,6.525-72.658,54.773-58.948,97.645c11.157,34.89,46.816,55.627,82.252,50.49c35.954-5.212,62.359-38.01,62.7-74.067
								C214.64,396.276,209.582,396.28,209.551,399.568z"/>
						</g>
						<g>
							
								<line style="fill:none;stroke:#877881;stroke-width:0.5022;stroke-miterlimit:10;" x1="139.359" y1="334.507" x2="139.359" y2="468.666"/>
							
								<line style="fill:none;stroke:#877881;stroke-width:0.5022;stroke-miterlimit:10;" x1="72.859" y1="401.587" x2="205.859" y2="401.587"/>
							
								<line style="fill:none;stroke:#877881;stroke-width:0.5022;stroke-miterlimit:10;" x1="92.336" y1="354.154" x2="186.382" y2="449.019"/>
							
								<line style="fill:none;stroke:#877881;stroke-width:0.5022;stroke-miterlimit:10;" x1="92.336" y1="449.019" x2="186.382" y2="354.154"/>
						</g>
						<g>
							
								<line style="fill:none;stroke:#877881;stroke-width:0.5022;stroke-miterlimit:10;" x1="113.544" y1="339.768" x2="165.174" y2="463.405"/>
							
								<line style="fill:none;stroke:#877881;stroke-width:0.5022;stroke-miterlimit:10;" x1="78.074" y1="427.627" x2="200.644" y2="375.546"/>
							
								<line style="fill:none;stroke:#877881;stroke-width:0.5022;stroke-miterlimit:10;" x1="77.77" y1="376.287" x2="200.948" y2="426.886"/>
							
								<line style="fill:none;stroke:#877881;stroke-width:0.5022;stroke-miterlimit:10;" x1="114.278" y1="463.712" x2="164.44" y2="339.461"/>
						</g>
						<g>
							
								<line style="fill:none;stroke:#877881;stroke-width:0.5022;stroke-miterlimit:10;" x1="126.26" y1="335.821" x2="152.458" y2="467.352"/>
							
								<line style="fill:none;stroke:#877881;stroke-width:0.5022;stroke-miterlimit:10;" x1="74.162" y1="414.799" x2="204.556" y2="388.374"/>
							
								<line style="fill:none;stroke:#877881;stroke-width:0.5022;stroke-miterlimit:10;" x1="83.995" y1="364.426" x2="194.723" y2="438.747"/>
							
								<line style="fill:none;stroke:#877881;stroke-width:0.5022;stroke-miterlimit:10;" x1="102.52" y1="457.433" x2="176.198" y2="345.741"/>
						</g>
						<g>
							
								<line style="fill:none;stroke:#877881;stroke-width:0.5022;stroke-miterlimit:10;" x1="101.978" y1="346.108" x2="176.74" y2="457.065"/>
							
								<line style="fill:none;stroke:#877881;stroke-width:0.5022;stroke-miterlimit:10;" x1="84.36" y1="439.293" x2="194.358" y2="363.88"/>
							
								<line style="fill:none;stroke:#877881;stroke-width:0.5022;stroke-miterlimit:10;" x1="74.036" y1="389.02" x2="204.682" y2="414.153"/>
							
								<line style="fill:none;stroke:#877881;stroke-width:0.5022;stroke-miterlimit:10;" x1="126.901" y1="467.478" x2="151.817" y2="335.695"/>
						</g>
					</g>
				</g>
				<g>
					
						<polygon style="fill:none;stroke:#6D6269;stroke-width:2.3651;stroke-linecap:round;stroke-linejoin:round;stroke-miterlimit:10;" points="
						226.209,396.302 139.668,393.63 136.725,404.616 221.53,433.598 					"/>
					<g>
						<path style="fill:#877881;" d="M225.699,421.38l27.599,21.323c0,0-4.991,4.721-4.046,4.782
							c1.837,0.12-26.586-22.801-26.586-22.801L225.699,421.38z"/>
						<path style="fill:#311D3F;" d="M264.154,450.114l-21.448,1.296c0,0-0.289-8.934,0.653-9.033
							c0.942-0.099,19.499-1.731,19.499-1.731L264.154,450.114z"/>
					</g>
					<g>
						<ellipse style="fill:#A898A2;" cx="225.914" cy="416.493" rx="21.782" ry="21.972"/>
						<ellipse style="fill:#877881;" cx="225.914" cy="416.493" rx="18.544" ry="18.706"/>
					</g>
					<g>
						<ellipse style="fill:#877881;" cx="140.257" cy="399.568" rx="10.973" ry="11.068"/>
					</g>
				</g>
				<g>
					<g>
						<g>
							
								<line style="fill:none;stroke:#E23E57;stroke-width:7.0952;stroke-linecap:round;stroke-linejoin:round;stroke-miterlimit:10;" x1="307.647" y1="287.332" x2="349.855" y2="399.568"/>
							
								<polyline style="fill:none;stroke:#E23E57;stroke-width:4.7302;stroke-linecap:round;stroke-linejoin:round;stroke-miterlimit:10;" points="
								184.999,277.237 226.405,416.394 140.044,400.36 193.83,307.127 313.927,307.127 317.459,313.461 226.405,416.394 							"/>
						</g>
						<path style="fill:#311D3F;" d="M165.477,269.984l43.526,3.796c0,0,0.545,6.522-5.318,7.871
							c-5.863,1.348-30.805,7.255-35.912,2.975C162.666,280.346,160.028,273.538,165.477,269.984z"/>
					</g>
					<g>
						<g>
							<path style="fill:#877881;" d="M305.774,295.316c2.642-1.202,5.354-2.209,8.122-3.054l-2.593-6.463l30.138-6.329
								c2.35-0.452,3.891-2.741,3.443-5.111c-0.449-2.371-2.719-3.93-5.069-3.473l-35.321,7.327
								c-1.273,0.245-2.372,1.053-2.992,2.202c-0.62,1.149-0.697,2.517-0.211,3.73L305.774,295.316z"/>
						</g>
						<path style="fill:#1E1328;" d="M321.718,266.286c0,0,13.109,0.912,14.465,5.016c1.356,4.104-0.689,7.721-6.031,13.007
							c-4.365,4.318-7.53-1.151-7.53-1.151s9.041-0.912,7.233-5.928c-1.808-5.016-10.397,5.472-15.369-3.192
							C309.512,265.375,321.718,266.286,321.718,266.286z"/>
					</g>
					<g>
						<ellipse style="fill:#C6B5C1;" cx="225.655" cy="415.637" rx="7.774" ry="7.842"/>
						<path style="fill:#A898A2;" d="M224.666,418.986l-27.664-21.238c0,0,4.976-4.736,4.031-4.795
							c-1.837-0.114,26.655,22.719,26.655,22.719L224.666,418.986z"/>
						<path style="fill:#311D3F;" d="M189.4,390.233l25.983,7.287c0,0-1.52,7.424-2.467,7.386c-0.946-0.039-25.39-7.408-25.39-7.408
							L189.4,390.233z"/>
						<path style="fill:#A898A2;" d="M229.78,415.583c0,2.298-1.847,4.161-4.125,4.161c-2.278,0-4.125-1.863-4.125-4.161
							c0-2.298,1.847-4.161,4.125-4.161C227.933,411.422,229.78,413.284,229.78,415.583z"/>
					</g>
				</g>
			</g>
		</g>
		<g>
			<g>
				<g>
					<path style="fill:#1E1328;" d="M216.903,362.362c0,0-19.515,26.458-19.305,30.48c0,0,71.135,22.013,19.305-3.598l11.541-14.817
						L216.903,362.362z"/>
					<path style="fill:#522546;" d="M235.228,399.874c-5.51,0.899-32.152-7.326-37.215-8.914l-0.414,1.881
						C197.598,392.841,241.304,406.366,235.228,399.874z"/>
				</g>
				<g>
					<path style="fill:#88304E;" d="M176.026,218.505c0,0-24,44.383-3.333,55.143c13.817,7.194,80.623,35.643,80.623,35.643
						s-40.298,45.173-49.631,65.347l19.675,11.314c0,0,79.355-75.297,75.801-86.878c-4.816-15.693-64.258-43.441-64.258-43.441
						l5.456-16.51L176.026,218.505z"/>
					<path style="fill:#682741;" d="M191.324,246.334c14.059,2.25,28.18,4.639,42.317,6.318c0.72,0.086,1.441,0.168,2.162,0.251
						l4.554-13.781l-64.332-20.617c0,0-5.652,10.453-9.108,22.443C174.844,243.503,183.153,245.027,191.324,246.334z"/>
				</g>
			</g>
			<g>
				<g>
					<path style="fill:#FFB6B6;" d="M249.11,88.635c0,0,3.078-18.861,29.624-18.51c26.546,0.35,27.254,29.788,19.821,49.413
						c-7.433,19.625-17.278,23.575-27.896,20.421C260.041,136.804,239.553,124.731,249.11,88.635z"/>
					<g style="opacity:0.7;">
						<path style="fill:#AF7068;" d="M251.693,103.345c-0.242-0.295-0.447-0.62-0.61-0.973c-0.08-0.177-0.157-0.359-0.214-0.552
							c-0.054-0.193-0.109-0.395-0.104-0.613c-0.008-0.211,0.017-0.45,0.121-0.668c0.081-0.224,0.259-0.433,0.452-0.565
							c0.198-0.154,0.41-0.226,0.625-0.297c0.109-0.046,0.21-0.043,0.317-0.066l0.318-0.049l-0.372,0.25
							c0.315-0.857,0.583-1.766,0.766-2.657c0.171-0.89,0.283-1.812,0.071-2.587c-0.066-0.178-0.116-0.377-0.235-0.511l-0.077-0.113
							c0,0-0.057-0.072-0.007-0.025l-0.068-0.059c-0.085-0.064-0.192-0.188-0.253-0.211c-0.104-0.057-0.251-0.131-0.423-0.122
							c-0.166-0.002-0.356,0.044-0.542,0.136c-0.189,0.08-0.375,0.205-0.55,0.344c-0.179,0.135-0.357,0.285-0.523,0.45
							c-0.335,0.326-0.641,0.692-0.942,1.069c0.161-0.458,0.394-0.886,0.66-1.3c0.267-0.415,0.589-0.809,1.038-1.116
							c0.217-0.159,0.492-0.28,0.801-0.316c0.304-0.046,0.632,0.016,0.949,0.183c0.156,0.076,0.211,0.14,0.319,0.215l0.072,0.054
							c0.098,0.083,0.068,0.071,0.109,0.111l0.142,0.17c0.205,0.221,0.306,0.495,0.417,0.752c0.088,0.264,0.158,0.532,0.176,0.796
							c0.046,0.268,0.024,0.523,0.034,0.784c-0.025,0.511-0.081,1.016-0.199,1.499c-0.21,0.978-0.546,1.89-0.965,2.794l-0.111,0.239
							l-0.262,0.011l-0.243,0.01c-0.078,0.008-0.171-0.007-0.238,0.019c-0.147,0.031-0.298,0.06-0.408,0.132
							c-0.071,0.022-0.109,0.071-0.159,0.111c-0.057,0.035-0.096,0.088-0.128,0.147c-0.081,0.106-0.128,0.255-0.146,0.413
							C251.199,101.891,251.434,102.646,251.693,103.345z"/>
					</g>
					<g>
						<path style="fill:#AF7068;" d="M292.943,101.664c0,0,0.018,0.249,0.025,0.682c-0.003,0.432,0.022,1.052,0,1.791
							c-0.03,1.479-0.155,3.443-0.359,5.397c-0.212,1.954-0.502,3.9-0.785,5.352c-0.134,0.727-0.29,1.328-0.378,1.751
							c-0.099,0.422-0.169,0.661-0.169,0.661s-0.018-0.249-0.026-0.682c0.003-0.432-0.023-1.053-0.001-1.791
							c0.029-1.479,0.155-3.442,0.361-5.397c0.212-1.954,0.504-3.899,0.787-5.352c0.134-0.727,0.289-1.328,0.378-1.751
							C292.873,101.904,292.943,101.664,292.943,101.664z"/>
					</g>
					<path style="fill:#EFEFEF;" d="M296.107,111.404c-7.158-7.221-36.32-6.48-47.83-6.126c-1.582,24.904,13.455,32.296,22.6,35.013
						c10.718,3.184,20.656-0.803,28.159-20.613c0.41-1.083,0.791-2.2,1.149-3.335C299.11,114.749,297.773,113.086,296.107,111.404z"
						/>
					<path style="opacity:0.1;fill:#1E1328;" d="M283.227,133.128c-10.921-7.067-22.742-12.341-34.583-17.583
						c2.529,16.792,14.491,22.446,22.233,24.746c6.239,1.853,12.213,1.268,17.596-3.445
						C286.77,135.548,285.031,134.296,283.227,133.128z"/>
					<path style="fill:#1E1328;" d="M248.86,117.383c0,0-0.188,2.919-0.667,1.765c-1.586-3.82-4.888-16.992-2.583-29.001
						c3-15.635,9.75-24.209,9.75-24.209l18.75,5.296c0,0,1.5,17.148-14.75,23.201l-3.333,10.76l-2.917-0.084
						c0,0,4.25-12.441-0.75-13.954c-5-1.513-6.75,10.339-1.25,14.122"/>
				</g>
				<g>
					<g>
						<path style="fill:#1E1328;" d="M283.503,103.945c0,0-0.002-0.24-0.005-0.659c0.004-0.413-0.038-1.007-0.128-1.693
							c-0.096-0.684-0.27-1.472-0.635-2.193c-0.184-0.358-0.431-0.68-0.715-0.959c-0.149-0.132-0.304-0.258-0.479-0.357
							c-0.099-0.076-0.399-0.191-0.589-0.284c-0.343-0.099-0.741-0.219-1.131-0.162c-0.382,0.046-0.771,0.132-1.112,0.336
							c-0.703,0.363-1.248,0.96-1.666,1.496c-0.406,0.549-0.721,1.052-0.883,1.431c-0.178,0.373-0.272,0.597-0.272,0.597
							s0.006-0.06,0.017-0.172c0.018-0.11,0.014-0.283,0.069-0.487c0.083-0.415,0.236-1.014,0.58-1.677
							c0.166-0.334,0.387-0.679,0.665-1.017c0.281-0.334,0.612-0.674,1.04-0.934c0.411-0.277,0.923-0.477,1.464-0.54
							c0.547-0.081,1.097,0.035,1.653,0.218c0.398,0.18,0.966,0.475,1.318,0.856c0.382,0.381,0.645,0.838,0.841,1.285
							c0.37,0.91,0.436,1.799,0.408,2.534c-0.02,0.739-0.162,1.333-0.252,1.745C283.592,103.721,283.503,103.945,283.503,103.945z"
							/>
					</g>
					<g>
						<path style="fill:#1E1328;" d="M299.321,108.814c0,0-0.004-0.221-0.01-0.607c-0.008-0.382-0.023-0.929-0.08-1.57
							c-0.065-0.64-0.165-1.383-0.401-2.111c-0.115-0.365-0.291-0.709-0.496-1.015c-0.221-0.307-0.453-0.546-0.823-0.702
							c-0.104-0.066-0.181-0.088-0.249-0.103c-0.075-0.015-0.135-0.062-0.223-0.059c-0.164-0.03-0.328-0.022-0.491,0.006
							c-0.323,0.076-0.644,0.242-0.929,0.47c-0.27,0.248-0.537,0.503-0.745,0.795c-0.216,0.282-0.402,0.572-0.563,0.847
							c-0.316,0.554-0.543,1.048-0.687,1.401c-0.141,0.358-0.222,0.563-0.222,0.563s0.004-0.221,0.051-0.608
							c0.051-0.386,0.159-0.938,0.398-1.573c0.239-0.632,0.604-1.363,1.248-2.007c0.337-0.303,0.748-0.603,1.268-0.724
							c0.263-0.054,0.53-0.072,0.801-0.031c0.248,0.034,0.599,0.145,0.764,0.244c0.438,0.195,0.852,0.6,1.11,1.001
							c0.271,0.41,0.429,0.856,0.537,1.28c0.205,0.855,0.208,1.654,0.16,2.323c-0.047,0.671-0.161,1.216-0.253,1.594
							C299.393,108.604,299.321,108.814,299.321,108.814z"/>
					</g>
					<g>
						<path style="fill:#1E1328;" d="M290.61,96.2c0,0-0.288-0.192-0.792-0.529c-0.244-0.163-0.541-0.361-0.882-0.587
							c-0.328-0.232-0.733-0.451-1.127-0.725c-0.425-0.238-0.846-0.538-1.324-0.79c-0.466-0.271-0.955-0.543-1.47-0.785
							c-0.497-0.285-1.049-0.455-1.571-0.706c-0.267-0.109-0.55-0.165-0.818-0.267c-0.271-0.094-0.541-0.201-0.823-0.232
							l-0.827-0.184c-0.275-0.06-0.553-0.051-0.828-0.086c-0.275-0.007-0.551-0.088-0.822-0.06
							c-0.272,0.017-0.541,0.036-0.811,0.038c-0.547-0.035-1.053,0.147-1.567,0.205c-0.523,0.04-0.984,0.235-1.438,0.36
							c-0.444,0.148-0.909,0.201-1.26,0.383c-0.36,0.16-0.699,0.277-0.977,0.382c-0.559,0.206-0.914,0.305-0.914,0.305
							s0.178-0.296,0.551-0.782c0.188-0.241,0.415-0.544,0.704-0.867c0.263-0.357,0.668-0.627,1.088-0.97
							c0.433-0.323,0.891-0.714,1.485-0.949c0.583-0.245,1.182-0.603,1.891-0.704c0.694-0.157,1.424-0.315,2.181-0.262
							c0.375,0.016,0.764-0.024,1.136,0.049l1.12,0.215c0.745,0.158,1.433,0.471,2.106,0.756c0.633,0.355,1.277,0.679,1.8,1.114
							c0.556,0.394,1.034,0.837,1.462,1.274c0.441,0.424,0.784,0.892,1.116,1.298c0.612,0.866,1.039,1.627,1.276,2.197
							C290.529,95.853,290.61,96.2,290.61,96.2z"/>
					</g>
					<g>
						<path style="fill:#1E1328;" d="M294.86,98.722c0,0,0.055-0.206,0.217-0.518c0.16-0.31,0.418-0.73,0.809-1.158
							c0.385-0.433,0.919-0.858,1.581-1.216c0.355-0.153,0.698-0.34,1.134-0.419c0.214-0.041,0.416-0.11,0.647-0.123l0.713-0.015
							c0.229-0.012,0.5,0.079,0.746,0.127c0.252,0.053,0.494,0.126,0.727,0.269c0.235,0.125,0.462,0.262,0.667,0.41
							c0.178,0.179,0.351,0.359,0.501,0.548c0.349,0.358,0.43,0.779,0.589,1.141c0.155,0.369,0.111,0.714,0.143,1.025
							c0.017,0.312-0.007,0.589-0.079,0.828c-0.048,0.238-0.122,0.444-0.178,0.609c-0.115,0.33-0.218,0.509-0.218,0.509
							s-0.16-0.158-0.374-0.418c-0.105-0.13-0.24-0.282-0.357-0.455c-0.113-0.179-0.287-0.347-0.449-0.516
							c-0.173-0.156-0.284-0.39-0.482-0.5c-0.188-0.107-0.31-0.314-0.492-0.341c-0.084-0.029-0.15-0.071-0.213-0.117
							c-0.086-0.005-0.159-0.015-0.224-0.043c-0.055-0.041-0.15-0.026-0.232-0.039c-0.09-0.001-0.146-0.054-0.262-0.031
							c-0.201-0.009-0.413-0.02-0.669,0.006c-0.237-0.009-0.514,0.061-0.779,0.066c-0.589,0.081-1.138,0.156-1.609,0.22
							c-0.514,0.054-0.969,0.108-1.308,0.126C295.078,98.721,294.86,98.722,294.86,98.722z"/>
					</g>
				</g>
				<g>
					<path style="fill:#E23E57;" d="M307.027,85.356c0,0,3-22.864-13.667-31.27c-16.667-8.406-41.667-3.026-46.667,25.218
						L307.027,85.356z"/>
					<path style="opacity:0.1;fill:#111823;" d="M307.027,85.356c0,0,3-22.864-13.667-31.27
						c-16.667-8.406-41.667-3.026-46.667,25.218L307.027,85.356z"/>
					<path style="fill:#E23E57;" d="M246.693,79.304c0,0,69,20.847,77.333,13.786c4.685-3.97-10-10.087-16.333-12.105
						C303.36,84.348,246.693,79.304,246.693,79.304z"/>
				</g>
			</g>
			<g>
				<g>
					<path style="fill:#E23E57;" d="M280.692,142.515c-6.82-8.943-39.653-29.972-39.653-29.972
						c-5.945,7.408-9.728,13.174-12.013,17.048c-23.787,8.404-44.647,39.389-62.324,97.837c0,0,43.647,22.014,83.203,21.326
						c0,0,26.263-63.591,21.867-98.205L280.692,142.515z"/>
					<path style="opacity:0.1;fill:#111823;" d="M280.692,142.515c-6.82-8.943-39.653-29.972-39.653-29.972
						c-5.945,7.408-9.728,13.174-12.013,17.048c-23.787,8.404-44.647,39.389-62.324,97.837c0,0,43.647,22.014,83.203,21.326
						c0,0,26.263-63.591,21.867-98.205L280.692,142.515z"/>
				</g>
				<g>
					<g>
						<path style="fill:#311D3F;" d="M232.618,122.177c0,0,26.075,2.211,29.409,27.544c3.333,25.333-12.667,86-86,64l0.667-7.333
							c0,0,41.333,12.667,67.333-14.667c26-27.333-21.333-62.667-21.333-62.667L232.618,122.177z"/>
						<path style="opacity:0.4;fill:#88304E;" d="M232.618,122.177c0,0,26.075,2.211,29.409,27.544c3.333,25.333-12.667,86-86,64
							l4.397-6.83c0,0,37.414,11.327,63.603-15.17c26.519-26.83-19.324-58.8-19.324-58.8L232.618,122.177z"/>
					</g>
					<g>
						<g>
							<path style="fill:#311D3F;" d="M172.344,218.464c0,0-46.365-18.223-68.195-33.896c0,0,34.448-73.5,56.253-102.736
								c0,0,51.851,23.485,72.217,40.347C232.618,122.177,192.409,193.068,172.344,218.464z"/>
							<path style="opacity:0.4;fill:#88304E;" d="M174.518,88.505c-8.39-4.08-14.116-6.674-14.116-6.674
								c-21.805,29.236-56.253,102.736-56.253,102.736c5.362,3.85,12.205,7.853,19.477,11.702
								C140.443,160.283,158.53,124.787,174.518,88.505z"/>
						</g>
						<g>
							<polygon style="fill:#311D3F;" points="155.693,89.722 165.693,95.388 120.027,186.722 122.027,188.722 168.027,94.388 
								156.36,87.722 							"/>
							<polygon style="fill:#311D3F;" points="152.36,106.388 162.693,96.055 163.36,97.722 155.693,110.388 							"/>
						</g>
					</g>
				</g>
				<g>
					<g>
						<path style="fill:#1E1328;" d="M315.88,275.844c0,0-13.191-5.4-20.456-17.549l13.383-5.014c0,0,5.162,8.678,13.765,13.113
							L315.88,275.844z"/>
						<path style="fill:#1E1328;" d="M335.776,270.761c0,0,3.777,7.282,1.847,10.923c-1.931,3.641-2.854-1.185-2.854-1.185
							s0.755,4.996-4.869,3.98L335.776,270.761z"/>
					</g>
					<path style="fill:#E23E57;" d="M214.442,157.946c0,0-2.046-35.773,24.552-24.078c21.366,9.395,25.916,66.041,43.647,83.928
						l40.237,44.715l-16.368,11.007c0,0-32.736-17.886-55.923-42.652C227.4,206.102,214.442,157.946,214.442,157.946z"/>
				</g>
			</g>
		</g>
	</g>
</g>
</svg>
